HIERARCHY
ROOT Hips
{
	OFFSET 0.00000 0.00000 0.00000
	CHANNELS 6 Xposition Yposition Zposition Zrotation Yrotation Xrotation 
	JOINT LHipJoint
	{
		OFFSET 0 0 0
		CHANNELS 3 Zrotation Yrotation Xrotation
		JOINT LeftHip
		{
			OFFSET 1.34019 -1.87553 0.90315
			CHANNELS 3 Zrotation Yrotation Xrotation
			JOINT LeftKnee
			{
				OFFSET 2.55316 -7.01474 0.00000
				CHANNELS 3 Zrotation Yrotation Xrotation
				JOINT LeftAnkle
				{
					OFFSET 2.64657 -7.27139 0.00000
					CHANNELS 3 Zrotation Yrotation Xrotation
					JOINT LeftToe
					{
						OFFSET 0.24207 -0.66507 2.14489
						CHANNELS 3 Zrotation Yrotation Xrotation
						End Site
						{
							OFFSET 0.00000 -0.00000 1.12451
						}
					}
				}
			}
		}
	}
	JOINT RHipJoint
	{
		OFFSET 0 0 0
		CHANNELS 3 Zrotation Yrotation Xrotation
		JOINT RightHip
		{
			OFFSET -1.28320 -1.87553 0.90315
			CHANNELS 3 Zrotation Yrotation Xrotation
			JOINT RightKnee
			{
				OFFSET -2.60484 -7.15674 0.00000
				CHANNELS 3 Zrotation Yrotation Xrotation
				JOINT RightAnkle
				{
					OFFSET -2.60296 -7.15159 0.00000
					CHANNELS 3 Zrotation Yrotation Xrotation
					JOINT RightToe
					{
						OFFSET -0.31082 -0.85398 2.28998
						CHANNELS 3 Zrotation Yrotation Xrotation
						End Site
						{
							OFFSET -0.00000 -0.00000 1.21611
						}
					}
				}
			}
		}
	}
	JOINT lowerback
	{
		OFFSET 0 0 0
		CHANNELS 3 Zrotation Yrotation Xrotation
		JOINT Chest
		{
			OFFSET -0.00160 2.05581 -0.15156
			CHANNELS 3 Zrotation Yrotation Xrotation
			JOINT Chest2
			{
				OFFSET 0.04594 2.06326 -0.01617
				CHANNELS 3 Zrotation Yrotation Xrotation
				JOINT lowerneck
				{
					OFFSET 0 0 0
					CHANNELS 3 Zrotation Yrotation Xrotation
					JOINT Neck
					{
						OFFSET 0.03753 1.73883 0.26751
						CHANNELS 3 Zrotation Yrotation Xrotation
						JOINT Head
						{
							OFFSET -0.09795 1.76129 -0.31794
							CHANNELS 3 Zrotation Yrotation Xrotation
							End Site
							{
								OFFSET -0.03611 1.79987 -0.13846
							}
						}
					}
				}
				JOINT LeftCollar
				{
					OFFSET 0 0 0
					CHANNELS 3 Zrotation Yrotation Xrotation
					JOINT LeftShoulder
					{
						OFFSET 3.30667 1.29205 -0.22445
CHANNELS 3 Zrotation Xrotation Yrotation
						JOINT LeftElbow
						{
OFFSET 0 -4.927850 -0.000000
CHANNELS 3 Zrotation Xrotation Yrotation
							JOINT LeftWrist
							{
OFFSET 0 -3.440520 0.000000
CHANNELS 3 Zrotation Xrotation Yrotation
								JOINT lhand
								{
									OFFSET 0 0 0
CHANNELS 3 Zrotation Xrotation Yrotation
									JOINT LFingers
									{
OFFSET 0 -0.654330 0.000000
CHANNELS 3 Zrotation Xrotation Yrotation
										End Site
										{
OFFSET 0 -0.527530 0.000000
										}
									}
								}
								JOINT LThumb
								{
OFFSET 0 0.000000 0.000000
CHANNELS 3 Zrotation Xrotation Yrotation
									End Site
									{
OFFSET 0 -0.535590 0.535590
									}
								}
							}
						}
					}
				}
				JOINT RightCollar
				{
					OFFSET 0 0 0
					CHANNELS 3 Zrotation Yrotation Xrotation
					JOINT RightShoulder
					{
						OFFSET -3.20032 1.49783 -0.27688
CHANNELS 3 Zrotation Xrotation Yrotation
						JOINT RightElbow
						{
OFFSET 0 -5.091810 -0.000000
CHANNELS 3 Zrotation Xrotation Yrotation
							JOINT RightWrist
							{
OFFSET 0 -3.498650 -0.000000
CHANNELS 3 Zrotation Xrotation Yrotation
								JOINT rhand
								{
									OFFSET 0 0 0
CHANNELS 3 Zrotation Xrotation Yrotation
									JOINT RFingers
									{
OFFSET 0 -0.666410 0.000000
CHANNELS 3 Zrotation Xrotation Yrotation
										End Site
										{
OFFSET 0 -0.537280 0.000000
										}
									}
								}
								JOINT RThumb
								{
OFFSET 0 0.000000 0.000000
CHANNELS 3 Zrotation Xrotation Yrotation
									End Site
									{
OFFSET 0 -0.545480 0.545480
									}
								}
							}
						}
					}
				}
			}
		}
	}
}
MOTION
Frames: 7
Frame Time: 0.008333333333333333
0.022400 17.941300 -30.403100 -2.588800 3.501700 5.672600 0.000000 0.000000 0.000000 -15.232100 -3.318200 -10.378100 2.016400 8.900100 25.483400 0.252000 10.465000 -18.292700 2.771900 -10.316400 -30.007400 0.000000 0.000000 0.000000 20.272100 1.931200 -10.469700 -2.391500 -9.637900 27.812000 0.303900 -17.737000 -22.251500 -0.062000 1.606100 -4.418300 -0.571700 -0.331300 -0.085400 2.770000 -0.362000 -3.821500 3.192800 -0.109300 -3.866700 6.867400 0.851100 -20.262900 -7.594500 0.975400 22.366900 -3.749800 0.098800 10.601800 -0.000000 -0.000000 0.000000 0.151300 8.762400 -15.945900 14.813600 -23.885900 3.150100 13.647200 -5.843300 -2.256500 0.000000 0.000000 0.000000 -7.125000 0.000000 0.000000 -10.401500 32.184700 -3.310300 -0.000000 -0.000000 0.000000 -4.887800 2.580000 11.911300 -12.240300 -20.164100 -2.184400 -15.973700 0.725500 5.053900 0.000000 0.000000 0.000000 7.125000 0.000000 -0.000000 8.881200 35.122600 2.176200
0.002786 17.944587 -30.381525 -2.449822 3.818038 5.868951 0.000000 0.000000 0.000000 -15.286669 -3.688220 -10.351659 1.996375 8.858449 25.353441 0.243757 10.510583 -18.248334 2.649193 -10.104208 -29.314917 0.000000 0.000000 0.000000 20.253001 1.983480 -10.518932 -2.390825 -9.636551 27.807665 0.305638 -17.957764 -22.589386 -0.056581 1.534634 -4.221070 -0.928631 -0.568572 -0.527084 2.698438 -0.691334 -3.827625 3.323578 -0.266566 -3.600468 7.199492 0.927441 -20.155794 -7.660157 0.999669 22.391840 -3.826366 0.132568 10.594354 0.000000 0.000000 0.000000 0.307796 8.750104 -16.049861 14.762291 -23.813944 3.129353 13.565181 -6.012084 -2.265723 0.000000 0.000000 0.000000 -7.125000 0.000000 0.000000 -10.467851 32.191861 -3.330183 0.000000 0.000000 0.000000 -4.637723 2.429417 11.627273 -12.167392 -20.055141 -2.159362 -16.372653 0.947833 4.121790 0.000000 0.000000 0.000000 7.125000 0.000000 0.000000 8.435823 34.181514 2.259844
-0.006902 17.943213 -30.372598 -2.423026 3.675636 5.803569 0.000000 0.000000 0.000000 -15.303534 -3.637050 -10.233130 1.998428 8.862769 25.366972 0.239537 10.600781 -18.302847 2.529528 -9.891331 -28.625508 0.000000 0.000000 0.000000 20.258907 2.038399 -10.391249 -2.388973 -9.633172 27.796864 0.295140 -17.922514 -22.639007 -0.055738 1.523719 -4.191067 -0.922697 -0.587789 -0.264564 2.580089 -0.718405 -3.903619 3.203106 -0.279142 -3.827317 7.417680 1.002462 -20.134751 -7.656470 1.037529 22.453981 -3.858316 0.170069 10.617600 0.000000 0.000000 0.000000 0.538553 8.745852 -16.265018 14.726009 -23.763050 3.114654 13.601757 -5.996073 -2.570586 0.000000 0.000000 0.000000 -7.125000 0.000000 0.000000 -10.477364 32.501235 -3.253855 0.000000 0.000000 0.000000 -4.399902 2.565481 11.244737 -12.089022 -19.938089 -2.132532 -16.292579 1.199220 4.169589 0.000000 0.000000 0.000000 7.125000 0.000000 0.000000 8.506884 34.227402 2.269711
-0.010276 17.942743 -30.367224 -2.504433 3.272557 5.758783 0.000000 0.000000 0.000000 -15.251010 -3.472246 -10.181716 2.008333 8.883385 25.431175 0.227338 10.832175 -18.428579 2.501491 -9.840673 -28.462400 0.000000 0.000000 0.000000 20.313042 2.153304 -10.310865 -2.379805 -9.615929 27.741829 0.283924 -17.740559 -22.462940 -0.058638 1.562819 -4.298799 0.157558 -1.270207 0.068759 2.394289 -1.608240 -4.100468 2.442324 -0.759645 -4.198295 8.046769 2.241578 -19.675637 -7.896566 2.673120 22.259949 -3.803217 0.951442 10.620989 0.000000 0.000000 0.000000 0.532953 9.307087 -14.258495 15.071279 -24.245312 3.255171 13.530532 -6.191009 -2.574931 0.000000 0.000000 0.000000 -7.125000 0.000000 0.000000 -10.534674 32.503479 -3.271627 0.000000 0.000000 0.000000 -4.296215 2.746316 13.225699 -11.833350 -19.554225 -2.046156 -16.346777 1.795377 4.179893 0.000000 0.000000 0.000000 7.125000 0.000000 0.000000 8.464012 34.240193 2.255364
-0.013352 17.940600 -30.363703 -2.544420 3.065236 5.653086 0.000000 0.000000 0.000000 -15.233583 -3.416890 -10.036712 2.012952 8.893030 25.461390 0.220219 10.994547 -18.536794 2.335147 -9.531802 -27.473454 0.000000 0.000000 0.000000 20.349027 2.184848 -10.180856 -2.377621 -9.611867 27.728800 0.273378 -17.636219 -22.404461 -0.059449 1.572943 -4.326931 -0.665410 -0.409027 0.082905 2.488925 -0.473660 -3.993640 2.961440 -0.163245 -4.135291 7.685376 1.124209 -19.545270 -7.671364 1.160250 22.236993 -3.877748 0.255776 10.439378 0.000000 0.000000 0.000000 0.985278 8.809211 -16.884903 15.217250 -24.447904 3.315381 13.498655 -6.440434 -2.546521 0.000000 0.000000 0.000000 -7.125000 0.000000 0.000000 -10.556475 32.473821 -3.286289 0.000000 0.000000 0.000000 -4.224373 3.144362 10.819347 -11.925479 -19.692831 -2.077102 -16.453125 1.836342 4.465459 0.000000 0.000000 0.000000 7.125000 0.000000 0.000000 8.412257 34.538785 2.179764
-0.012000 17.939168 -30.360095 -2.560065 2.873953 5.636305 0.000000 0.000000 0.000000 -15.266226 -3.482515 -9.949001 2.017151 8.901702 25.488307 0.205424 11.252944 -18.673011 2.379430 -9.615296 -27.739641 0.000000 0.000000 0.000000 20.322713 2.167165 -10.161284 -2.370922 -9.599344 27.688696 0.252361 -17.455084 -22.332578 -0.057932 1.553227 -4.272481 -0.625261 -0.125258 0.582143 2.349939 -0.094762 -3.986283 2.783959 0.024554 -4.432351 7.584218 0.866586 -19.949998 -7.416623 0.740605 22.424948 -3.838248 0.080782 10.545134 0.000000 0.000000 0.000000 1.440818 8.548467 -17.831338 15.246708 -24.488698 3.327522 13.572433 -6.739583 -2.344457 0.000000 0.000000 0.000000 -7.125000 0.000000 0.000000 -10.472007 32.271679 -3.311109 0.000000 0.000000 0.000000 -3.888114 3.247904 10.279991 -12.035106 -19.857175 -2.114156 -16.364875 1.634764 4.344192 0.000000 0.000000 0.000000 7.125000 0.000000 0.000000 8.469424 34.410107 2.221518
-0.010524 17.940634 -30.366228 -2.624584 2.863600 5.764763 0.000000 0.000000 0.000000 -15.203467 -3.645791 -10.092439 2.023505 8.914809 25.529303 0.195062 11.373759 -18.697416 2.596573 -10.011083 -29.012861 0.000000 0.000000 0.000000 20.378560 2.232352 -10.314995 -2.367172 -9.592321 27.666320 0.256019 -17.453025 -22.292162 -0.057176 1.542746 -4.243573 -0.249493 -0.260034 0.737638 2.206956 -0.269628 -3.908082 2.432195 -0.080016 -4.430841 7.833332 1.203078 -19.842721 -7.197409 1.074113 22.139149 -3.741952 0.281486 10.452117 0.000000 0.000000 0.000000 1.542047 8.698645 -17.357381 15.407716 -24.711048 3.394584 13.587425 -6.911867 -2.613617 0.000000 0.000000 0.000000 -7.125000 0.000000 0.000000 -10.494312 32.544283 -3.248221 0.000000 0.000000 0.000000 -3.602252 3.067580 10.884042 -12.030646 -19.850588 -2.112661 -16.386796 1.646281 4.299294 0.000000 0.000000 0.000000 7.125000 0.000000 0.000000 8.445944 34.364831 2.224704
